<?xml version="1.0" encoding="iso-8859-1"?>
<!-- Generator: Adobe Illustrator 16.0.0, SVG Export Plug-In . SVG Version: 6.00 Build 0)  -->
<!DOCTYPE svg PUBLIC "-//W3C//DTD SVG 1.1//EN" "http://www.w3.org/Graphics/SVG/1.1/DTD/svg11.dtd">
<svg version="1.1" id="Capa_1" xmlns="http://www.w3.org/2000/svg" xmlns:xlink="http://www.w3.org/1999/xlink" x="0px" y="0px"
	 width="467.6px" height="467.6px" viewBox="0 0 467.6 467.6" style="enable-background:new 0 0 467.6 467.6;" xml:space="preserve"
	>
<g>
	<g>
		<path d="M209.3,219.916c4.3-3.7,10.4-6.1,18.4-6.7v45.899c-9.8-3.1-16.5-6.699-20.2-9.8c-3.7-3.7-5.5-8-5.5-14.1
			C202.6,229.116,205,224.216,209.3,219.916z M388.6,72.416c-8-29.4-31.199-40.4-58.1-33L93,103.016h303.6L388.6,72.416z
			 M467.6,178.916v204.4c0,26.3-20.8,47.101-47.1,47.101H47.1c-26.3,0-47.1-20.801-47.1-47.101v-204.4c0-26.3,20.8-47.1,47.1-47.1
			h373.3C446.2,131.815,467.6,153.216,467.6,178.916z M304.8,318.415c0-15.301-4.899-26.899-14.7-35.5
			c-9.8-8.601-24.5-14.699-44.699-19H244.8v-49.601c13.5,1.8,26.3,7.3,37.9,15.3l17.1-24.5c-17.1-11.6-35.5-18.4-55.1-19.6v-13.5
			h-17.1l0,0v12.9c-17.1,0.6-30.6,6.1-41.6,15.9c-10.4,9.8-15.9,22-15.9,37.3s4.9,26.9,14.1,34.3c9.2,8,23.9,14.102,43.5,19v51.4
			c-15.9-2.4-30.6-10.4-45.9-23.3l-19.6,23.3c19,16.5,41,26.3,64.9,28.8v19.602h17.1v-19c17.699-0.602,32.398-6.102,43.5-15.9
			C299.3,346.016,304.8,333.716,304.8,318.415z M244.8,295.815v47.7c8.601-0.601,15.3-3.101,20.2-7.3
			c4.899-4.301,7.3-9.2,7.3-15.301s-1.8-11-5.5-14.699C262.6,302.516,255.8,298.915,244.8,295.815z"/>
	</g>
</g>
<g>
</g>
<g>
</g>
<g>
</g>
<g>
</g>
<g>
</g>
<g>
</g>
<g>
</g>
<g>
</g>
<g>
</g>
<g>
</g>
<g>
</g>
<g>
</g>
<g>
</g>
<g>
</g>
<g>
</g>
</svg>
